<svg xmlns="http://www.w3.org/2000/svg" version="1.1" xmlns:xlink="http://www.w3.org/1999/xlink" xmlns:svgjs="http://svgjs.dev/svgjs" width="1440" height="560" preserveAspectRatio="none" viewBox="0 0 1440 560"><g mask="url(&quot;#SvgjsMask1036&quot;)" fill="none"><rect width="1440" height="560" x="0" y="0" fill="rgba(0, 28, 2, 1)"></rect><path d="M1512 560L0 560 L0 232.64Q0.46 161.1, 72 161.56Q99.89 117.45, 144 145.34Q205.6 134.94, 216 196.55Q237.31 97.87, 336 119.18Q380.12 91.3, 408 135.41Q466.45 121.86, 480 180.31Q576.38 156.69, 600 253.08Q651.25 184.34, 720 235.59Q706.45 150.04, 792 136.49Q820.01 92.5, 864 120.52Q953.84 90.36, 984 180.2Q1026.5 150.7, 1056 193.21Q1098.2 115.42, 1176 157.62Q1217.42 127.05, 1248 168.47Q1333.55 182.01, 1320 267.56Q1288.63 164.19, 1392 132.82Q1459.52 80.34, 1512 147.86z" fill="rgba(2, 33, 0, 1)"></path><path d="M1560 560L0 560 L0 370.99Q35.93 334.93, 72 370.86Q88.7 315.56, 144 332.26Q168.95 237.21, 264 262.16Q289.4 215.56, 336 240.97Q430.26 215.23, 456 309.49Q527.13 308.63, 528 379.76Q544.69 276.44, 648 293.13Q714.77 239.9, 768 306.67Q846.78 265.45, 888 344.22Q896.92 233.14, 1008 242.06Q1037.05 199.11, 1080 228.16Q1133.49 209.65, 1152 263.14Q1199.92 239.06, 1224 286.99Q1236.59 227.58, 1296 240.17Q1337.87 210.04, 1368 251.91Q1445.74 257.65, 1440 335.4Q1521.53 296.93, 1560 378.46z" fill="rgba(2, 49, 0, 1)"></path><path d="M1464 560L0 560 L0 407.52Q35.02 322.54, 120 357.56Q191.54 309.1, 240 380.64Q292.2 360.84, 312 413.04Q397.36 378.4, 432 463.77Q434.21 393.98, 504 396.19Q555.44 327.63, 624 379.07Q643.29 326.36, 696 345.64Q739.52 317.16, 768 360.68Q854.13 326.81, 888 412.95Q941.28 394.23, 960 447.51Q1014.25 429.76, 1032 484.01Q1048.97 380.98, 1152 397.94Q1193.15 319.09, 1272 360.24Q1301.97 318.22, 1344 348.19Q1450.94 335.13, 1464 442.08z" fill="rgba(2, 45, 0, 1)"></path><path d="M1512 560L0 560 L0 541Q70.75 491.75, 120 562.51Q174.7 545.21, 192 599.92Q207.47 495.39, 312 510.86Q352.01 430.87, 432 470.88Q500.1 418.98, 552 487.07Q621.17 436.24, 672 505.41Q749.67 511.09, 744 588.76Q724.2 496.96, 816 477.16Q866.22 407.38, 936 457.59Q1000.88 450.48, 1008 515.36Q1052 439.36, 1128 483.36Q1198.9 434.26, 1248 505.17Q1345.08 482.25, 1368 579.33Q1375.14 514.48, 1440 521.62Q1466.44 476.06, 1512 502.5z" fill="rgba(0, 113, 36, 1)"></path></g><defs><mask id="SvgjsMask1036"><rect width="1440" height="560" fill="#ffffff"></rect></mask></defs></svg>