<svg xmlns="http://www.w3.org/2000/svg" version="1.1" xmlns:xlink="http://www.w3.org/1999/xlink" xmlns:svgjs="http://svgjs.dev/svgjs" width="1440" height="560" preserveAspectRatio="none" viewBox="0 0 1440 560"><g mask="url(&quot;#SvgjsMask1004&quot;)" fill="none"><rect width="1440" height="560" x="0" y="0" fill="rgba(5, 20, 58, 1)"></rect><path d="M1464 560L0 560 L0 174.95Q29.28 132.23, 72 161.51Q133.75 151.25, 144 213Q193.59 142.59, 264 192.18Q327.63 183.81, 336 247.45Q336.94 176.39, 408 177.33Q411.53 108.86, 480 112.39Q564.79 77.18, 600 161.97Q674.17 164.14, 672 238.31Q746.45 192.76, 792 267.21Q814.97 170.18, 912 193.15Q977.13 138.28, 1032 203.41Q1110.85 162.26, 1152 241.11Q1165.24 134.35, 1272 147.59Q1300.73 104.32, 1344 133.05Q1418.78 87.83, 1464 162.61z" fill="#182f5d"></path><path d="M1488 560L0 560 L0 281.86Q39.73 249.59, 72 289.31Q115.25 260.56, 144 303.8Q191.58 279.38, 216 326.96Q276.48 315.44, 288 375.91Q295.72 263.63, 408 271.36Q425.32 216.68, 480 234Q546.3 180.3, 600 246.6Q702.49 229.09, 720 331.58Q744.89 284.48, 792 309.37Q815.16 212.53, 912 235.69Q986.5 190.19, 1032 264.68Q1080.54 241.22, 1104 289.76Q1195.1 260.86, 1224 351.96Q1269.85 325.8, 1296 371.65Q1302.34 305.99, 1368 312.32Q1408.43 232.75, 1488 273.18z" fill="#25467d"></path><path d="M1512 560L0 560 L0 425.79Q55.72 409.51, 72 465.24Q104.22 377.46, 192 409.68Q236.46 382.14, 264 426.61Q281.9 372.51, 336 390.41Q361.78 344.19, 408 369.97Q459.99 301.96, 528 353.94Q624.06 330, 648 426.05Q665.72 371.77, 720 389.49Q762.07 359.56, 792 401.62Q813.54 351.16, 864 372.7Q894.79 331.49, 936 362.28Q992.02 346.3, 1008 402.33Q1083.16 357.5, 1128 432.66Q1176.93 409.59, 1200 458.52Q1214.46 352.98, 1320 367.44Q1341.73 317.17, 1392 338.9Q1457.9 284.8, 1512 350.7z" fill="#356cb1"></path><path d="M1560 560L0 560 L0 539.17Q21.67 488.84, 72 510.5Q99.75 466.25, 144 493.99Q241.52 471.51, 264 569.04Q275.51 508.55, 336 520.06Q356.56 468.62, 408 489.18Q496.51 457.69, 528 546.2Q590.82 537.02, 600 599.84Q615.33 543.17, 672 558.51Q689.14 503.65, 744 520.8Q809.58 466.38, 864 531.96Q912.04 508, 936 556.04Q1004.71 504.75, 1056 573.45Q1089.63 487.08, 1176 520.7Q1194.21 466.92, 1248 485.13Q1273.68 438.81, 1320 464.49Q1398.54 423.03, 1440 501.58Q1475.96 417.54, 1560 453.5z" fill="white"></path></g><defs><mask id="SvgjsMask1004"><rect width="1440" height="560" fill="#ffffff"></rect></mask></defs></svg>