<svg id="visual" viewBox="0 0 960 540" width="960" height="540" xmlns="http://www.w3.org/2000/svg" xmlns:xlink="http://www.w3.org/1999/xlink" version="1.1"><path d="M0 55L7 58.7C14 62.3 28 69.7 41.8 73.3C55.7 77 69.3 77 83.2 74.2C97 71.3 111 65.7 125 57.5C139 49.3 153 38.7 167 37.8C181 37 195 46 208.8 50.5C222.7 55 236.3 55 250.2 52.3C264 49.7 278 44.3 292 43.5C306 42.7 320 46.3 334 45.3C348 44.3 362 38.7 375.8 37.7C389.7 36.7 403.3 40.3 417.2 41.3C431 42.3 445 40.7 459 45.2C473 49.7 487 60.3 501 63C515 65.7 529 60.3 542.8 59.5C556.7 58.7 570.3 62.3 584.2 62.3C598 62.3 612 58.7 626 60.5C640 62.3 654 69.7 668 70.5C682 71.3 696 65.7 709.8 70.2C723.7 74.7 737.3 89.3 751.2 84.8C765 80.3 779 56.7 793 47.7C807 38.7 821 44.3 835 44.3C849 44.3 863 38.7 876.8 46.7C890.7 54.7 904.3 76.3 918.2 76.3C932 76.3 946 54.7 953 43.8L960 33L960 0L953 0C946 0 932 0 918.2 0C904.3 0 890.7 0 876.8 0C863 0 849 0 835 0C821 0 807 0 793 0C779 0 765 0 751.2 0C737.3 0 723.7 0 709.8 0C696 0 682 0 668 0C654 0 640 0 626 0C612 0 598 0 584.2 0C570.3 0 556.7 0 542.8 0C529 0 515 0 501 0C487 0 473 0 459 0C445 0 431 0 417.2 0C403.3 0 389.7 0 375.8 0C362 0 348 0 334 0C320 0 306 0 292 0C278 0 264 0 250.2 0C236.3 0 222.7 0 208.8 0C195 0 181 0 167 0C153 0 139 0 125 0C111 0 97 0 83.2 0C69.3 0 55.7 0 41.8 0C28 0 14 0 7 0L0 0Z" fill="#001a3b"></path><path d="M0 87L7 95.2C14 103.3 28 119.7 41.8 127.8C55.7 136 69.3 136 83.2 127C97 118 111 100 125 90.2C139 80.3 153 78.7 167 82.3C181 86 195 95 208.8 96.7C222.7 98.3 236.3 92.7 250.2 86.3C264 80 278 73 292 74C306 75 320 84 334 84C348 84 362 75 375.8 71.3C389.7 67.7 403.3 69.3 417.2 73.8C431 78.3 445 85.7 459 95.7C473 105.7 487 118.3 501 121.8C515 125.3 529 119.7 542.8 116C556.7 112.3 570.3 110.7 584.2 104.5C598 98.3 612 87.7 626 87.7C640 87.7 654 98.3 668 99.2C682 100 696 91 709.8 93.7C723.7 96.3 737.3 110.7 751.2 108.8C765 107 779 89 793 80C807 71 821 71 835 73.7C849 76.3 863 81.7 876.8 90.7C890.7 99.7 904.3 112.3 918.2 110.7C932 109 946 93 953 85L960 77L960 31L953 41.8C946 52.7 932 74.3 918.2 74.3C904.3 74.3 890.7 52.7 876.8 44.7C863 36.7 849 42.3 835 42.3C821 42.3 807 36.7 793 45.7C779 54.7 765 78.3 751.2 82.8C737.3 87.3 723.7 72.7 709.8 68.2C696 63.7 682 69.3 668 68.5C654 67.7 640 60.3 626 58.5C612 56.7 598 60.3 584.2 60.3C570.3 60.3 556.7 56.7 542.8 57.5C529 58.3 515 63.7 501 61C487 58.3 473 47.7 459 43.2C445 38.7 431 40.3 417.2 39.3C403.3 38.3 389.7 34.7 375.8 35.7C362 36.7 348 42.3 334 43.3C320 44.3 306 40.7 292 41.5C278 42.3 264 47.7 250.2 50.3C236.3 53 222.7 53 208.8 48.5C195 44 181 35 167 35.8C153 36.7 139 47.3 125 55.5C111 63.7 97 69.3 83.2 72.2C69.3 75 55.7 75 41.8 71.3C28 67.7 14 60.3 7 56.7L0 53Z" fill="#001c42"></path><path d="M0 147L7 156.8C14 166.7 28 186.3 41.8 193.5C55.7 200.7 69.3 195.3 83.2 185.5C97 175.7 111 161.3 125 151.5C139 141.7 153 136.3 167 135.3C181 134.3 195 137.7 208.8 134.8C222.7 132 236.3 123 250.2 115C264 107 278 100 292 103.7C306 107.3 320 121.7 334 121.7C348 121.7 362 107.3 375.8 105.5C389.7 103.7 403.3 114.3 417.2 126.8C431 139.3 445 153.7 459 166.3C473 179 487 190 501 187.3C515 184.7 529 168.3 542.8 158.3C556.7 148.3 570.3 144.7 584.2 140.2C598 135.7 612 130.3 626 137.7C640 145 654 165 668 165C682 165 696 145 709.8 139.5C723.7 134 737.3 143 751.2 146.7C765 150.3 779 148.7 793 139.7C807 130.7 821 114.3 835 114.3C849 114.3 863 130.7 876.8 142.3C890.7 154 904.3 161 918.2 153.8C932 146.7 946 125.3 953 114.7L960 104L960 75L953 83C946 91 932 107 918.2 108.7C904.3 110.3 890.7 97.7 876.8 88.7C863 79.7 849 74.3 835 71.7C821 69 807 69 793 78C779 87 765 105 751.2 106.8C737.3 108.7 723.7 94.3 709.8 91.7C696 89 682 98 668 97.2C654 96.3 640 85.7 626 85.7C612 85.7 598 96.3 584.2 102.5C570.3 108.7 556.7 110.3 542.8 114C529 117.7 515 123.3 501 119.8C487 116.3 473 103.7 459 93.7C445 83.7 431 76.3 417.2 71.8C403.3 67.3 389.7 65.7 375.8 69.3C362 73 348 82 334 82C320 82 306 73 292 72C278 71 264 78 250.2 84.3C236.3 90.7 222.7 96.3 208.8 94.7C195 93 181 84 167 80.3C153 76.7 139 78.3 125 88.2C111 98 97 116 83.2 125C69.3 134 55.7 134 41.8 125.8C28 117.7 14 101.3 7 93.2L0 85Z" fill="#001e48"></path><path d="M0 190L7 202.7C14 215.3 28 240.7 41.8 249.7C55.7 258.7 69.3 251.3 83.2 239.5C97 227.7 111 211.3 125 203.2C139 195 153 195 167 190.5C181 186 195 177 208.8 169C222.7 161 236.3 154 250.2 153.2C264 152.3 278 157.7 292 159.5C306 161.3 320 159.7 334 153.3C348 147 362 136 375.8 136.8C389.7 137.7 403.3 150.3 417.2 164.8C431 179.3 445 195.7 459 207.3C473 219 487 226 501 220.5C515 215 529 197 542.8 188C556.7 179 570.3 179 584.2 177.2C598 175.3 612 171.7 626 184.3C640 197 654 226 668 227.8C682 229.7 696 204.3 709.8 196.2C723.7 188 737.3 197 751.2 196.2C765 195.3 779 184.7 793 174.8C807 165 821 156 835 159.5C849 163 863 179 876.8 192.5C890.7 206 904.3 217 918.2 212.5C932 208 946 188 953 178L960 168L960 102L953 112.7C946 123.3 932 144.7 918.2 151.8C904.3 159 890.7 152 876.8 140.3C863 128.7 849 112.3 835 112.3C821 112.3 807 128.7 793 137.7C779 146.7 765 148.3 751.2 144.7C737.3 141 723.7 132 709.8 137.5C696 143 682 163 668 163C654 163 640 143 626 135.7C612 128.3 598 133.7 584.2 138.2C570.3 142.7 556.7 146.3 542.8 156.3C529 166.3 515 182.7 501 185.3C487 188 473 177 459 164.3C445 151.7 431 137.3 417.2 124.8C403.3 112.3 389.7 101.7 375.8 103.5C362 105.3 348 119.7 334 119.7C320 119.7 306 105.3 292 101.7C278 98 264 105 250.2 113C236.3 121 222.7 130 208.8 132.8C195 135.7 181 132.3 167 133.3C153 134.3 139 139.7 125 149.5C111 159.3 97 173.7 83.2 183.5C69.3 193.3 55.7 198.7 41.8 191.5C28 184.3 14 164.7 7 154.8L0 145Z" fill="#00204f"></path><path d="M0 293L7 303.7C14 314.3 28 335.7 41.8 343.7C55.7 351.7 69.3 346.3 83.2 331.2C97 316 111 291 125 275.7C139 260.3 153 254.7 167 251C181 247.3 195 245.7 208.8 245.7C222.7 245.7 236.3 247.3 250.2 256.3C264 265.3 278 281.7 292 279C306 276.3 320 254.7 334 250.2C348 245.7 362 258.3 375.8 262.8C389.7 267.3 403.3 263.7 417.2 265.5C431 267.3 445 274.7 459 288.2C473 301.7 487 321.3 501 324.8C515 328.3 529 315.7 542.8 296.8C556.7 278 570.3 253 584.2 252.2C598 251.3 612 274.7 626 290C640 305.3 654 312.7 668 303.7C682 294.7 696 269.3 709.8 261.2C723.7 253 737.3 262 751.2 267.3C765 272.7 779 274.3 793 272.5C807 270.7 821 265.3 835 272.7C849 280 863 300 876.8 305.5C890.7 311 904.3 302 918.2 290.2C932 278.3 946 263.7 953 256.3L960 249L960 166L953 176C946 186 932 206 918.2 210.5C904.3 215 890.7 204 876.8 190.5C863 177 849 161 835 157.5C821 154 807 163 793 172.8C779 182.7 765 193.3 751.2 194.2C737.3 195 723.7 186 709.8 194.2C696 202.3 682 227.7 668 225.8C654 224 640 195 626 182.3C612 169.7 598 173.3 584.2 175.2C570.3 177 556.7 177 542.8 186C529 195 515 213 501 218.5C487 224 473 217 459 205.3C445 193.7 431 177.3 417.2 162.8C403.3 148.3 389.7 135.7 375.8 134.8C362 134 348 145 334 151.3C320 157.7 306 159.3 292 157.5C278 155.7 264 150.3 250.2 151.2C236.3 152 222.7 159 208.8 167C195 175 181 184 167 188.5C153 193 139 193 125 201.2C111 209.3 97 225.7 83.2 237.5C69.3 249.3 55.7 256.7 41.8 247.7C28 238.7 14 213.3 7 200.7L0 188Z" fill="#052a60"></path><path d="M0 455L7 450.5C14 446 28 437 41.8 433.3C55.7 429.7 69.3 431.3 83.2 425.8C97 420.3 111 407.7 125 408.5C139 409.3 153 423.7 167 434.5C181 445.3 195 452.7 208.8 441C222.7 429.3 236.3 398.7 250.2 396C264 393.3 278 418.7 292 425.8C306 433 320 422 334 413.8C348 405.7 362 400.3 375.8 389.7C389.7 379 403.3 363 417.2 364.8C431 366.7 445 386.3 459 395.3C473 404.3 487 402.7 501 414.3C515 426 529 451 542.8 437.5C556.7 424 570.3 372 584.2 371.2C598 370.3 612 420.7 626 437.7C640 454.7 654 438.3 668 419.3C682 400.3 696 378.7 709.8 385C723.7 391.3 737.3 425.7 751.2 440.2C765 454.7 779 449.3 793 430.5C807 411.7 821 379.3 835 371.2C849 363 863 379 876.8 380.7C890.7 382.3 904.3 369.7 918.2 360.7C932 351.7 946 346.3 953 343.7L960 341L960 247L953 254.3C946 261.7 932 276.3 918.2 288.2C904.3 300 890.7 309 876.8 303.5C863 298 849 278 835 270.7C821 263.3 807 268.7 793 270.5C779 272.3 765 270.7 751.2 265.3C737.3 260 723.7 251 709.8 259.2C696 267.3 682 292.7 668 301.7C654 310.7 640 303.3 626 288C612 272.7 598 249.3 584.2 250.2C570.3 251 556.7 276 542.8 294.8C529 313.7 515 326.3 501 322.8C487 319.3 473 299.7 459 286.2C445 272.7 431 265.3 417.2 263.5C403.3 261.7 389.7 265.3 375.8 260.8C362 256.3 348 243.7 334 248.2C320 252.7 306 274.3 292 277C278 279.7 264 263.3 250.2 254.3C236.3 245.3 222.7 243.7 208.8 243.7C195 243.7 181 245.3 167 249C153 252.7 139 258.3 125 273.7C111 289 97 314 83.2 329.2C69.3 344.3 55.7 349.7 41.8 341.7C28 333.7 14 312.3 7 301.7L0 291Z" fill="#0c3472"></path><path d="M0 541L7 541C14 541 28 541 41.8 541C55.7 541 69.3 541 83.2 541C97 541 111 541 125 541C139 541 153 541 167 541C181 541 195 541 208.8 541C222.7 541 236.3 541 250.2 541C264 541 278 541 292 541C306 541 320 541 334 541C348 541 362 541 375.8 541C389.7 541 403.3 541 417.2 541C431 541 445 541 459 541C473 541 487 541 501 541C515 541 529 541 542.8 541C556.7 541 570.3 541 584.2 541C598 541 612 541 626 541C640 541 654 541 668 541C682 541 696 541 709.8 541C723.7 541 737.3 541 751.2 541C765 541 779 541 793 541C807 541 821 541 835 541C849 541 863 541 876.8 541C890.7 541 904.3 541 918.2 541C932 541 946 541 953 541L960 541L960 339L953 341.7C946 344.3 932 349.7 918.2 358.7C904.3 367.7 890.7 380.3 876.8 378.7C863 377 849 361 835 369.2C821 377.3 807 409.7 793 428.5C779 447.3 765 452.7 751.2 438.2C737.3 423.7 723.7 389.3 709.8 383C696 376.7 682 398.3 668 417.3C654 436.3 640 452.7 626 435.7C612 418.7 598 368.3 584.2 369.2C570.3 370 556.7 422 542.8 435.5C529 449 515 424 501 412.3C487 400.7 473 402.3 459 393.3C445 384.3 431 364.7 417.2 362.8C403.3 361 389.7 377 375.8 387.7C362 398.3 348 403.7 334 411.8C320 420 306 431 292 423.8C278 416.7 264 391.3 250.2 394C236.3 396.7 222.7 427.3 208.8 439C195 450.7 181 443.3 167 432.5C153 421.7 139 407.3 125 406.5C111 405.7 97 418.3 83.2 423.8C69.3 429.3 55.7 427.7 41.8 431.3C28 435 14 444 7 448.5L0 453Z" fill="#133f85"></path></svg>